<?xml version="1.0" standalone="no"?>
<!DOCTYPE svg PUBLIC "-//W3C//DTD SVG 20010904//EN"
 "http://www.w3.org/TR/2001/REC-SVG-20010904/DTD/svg10.dtd">
<svg version="1.0" xmlns="http://www.w3.org/2000/svg"
 width="300.000000pt" height="300.000000pt" viewBox="0 0 300.000000 300.000000"
 preserveAspectRatio="xMidYMid meet">
<metadata>
Created by potrace 1.11, written by Peter Selinger 2001-2013
</metadata>
<g transform="translate(0.000000,300.000000) scale(0.100000,-0.100000)"
fill="#000000" stroke="none">
<path d="M0 1500 l0 -1500 1500 0 1500 0 0 1500 0 1500 -1500 0 -1500 0 0
-1500z m2770 584 l0 -515 -87 -41 c-49 -22 -117 -53 -153 -70 -36 -17 -157
-73 -270 -125 -113 -52 -266 -123 -340 -158 -74 -34 -198 -92 -275 -128 -77
-35 -268 -124 -425 -197 -157 -73 -341 -158 -410 -190 -69 -32 -161 -75 -205
-95 -44 -21 -146 -68 -228 -105 l-147 -69 2 522 3 521 160 74 c88 40 207 95
265 122 58 26 209 96 335 155 317 148 362 169 505 235 69 32 174 81 233 109
60 28 110 51 112 51 1 0 49 22 106 49 57 27 235 109 394 183 160 74 315 147
345 161 30 14 61 26 68 26 9 1 12 -108 12 -515z"/>
<path d="M2206 2116 c-53 -20 -84 -44 -123 -95 -128 -166 -5 -411 205 -411 88
0 128 16 187 73 54 53 85 121 85 187 0 48 -30 130 -62 166 -71 81 -197 115
-292 80z m151 -136 c60 -36 81 -102 54 -168 -26 -60 -106 -87 -174 -58 -52 21
-83 88 -68 144 24 86 116 126 188 82z"/>
<path d="M1733 1900 c-129 -61 -163 -87 -197 -150 -91 -167 12 -368 200 -387
103 -11 197 36 251 126 40 67 50 133 29 203 -29 99 -28 99 -150 43 l-106 -49
0 -48 c0 -26 3 -48 6 -48 4 0 33 12 65 26 33 15 61 25 64 22 9 -9 -17 -84 -37
-105 -27 -29 -81 -47 -122 -39 -18 4 -47 22 -67 42 -29 30 -34 42 -34 82 0 69
22 96 120 145 l85 41 0 73 c0 40 -1 73 -2 72 -2 0 -49 -22 -105 -49z"/>
<path d="M1147 1624 c-53 -16 -124 -79 -152 -135 -22 -42 -30 -133 -16 -186
16 -59 78 -133 137 -163 66 -32 160 -33 225 -2 99 48 153 134 153 242 -1 177
-174 300 -347 244z m142 -133 c49 -25 71 -60 71 -112 0 -78 -52 -129 -133
-129 -137 0 -170 190 -43 246 42 18 60 17 105 -5z"/>
<path d="M668 1265 l-3 -134 -100 83 c-55 46 -103 82 -106 80 -8 -5 -12 -554
-4 -554 3 0 35 13 70 29 l65 30 0 115 c0 64 3 116 8 116 4 0 46 -31 92 -70 46
-38 88 -70 92 -70 5 0 8 52 8 115 0 63 3 115 8 115 4 0 45 -32 91 -71 l83 -72
32 15 c17 8 46 21 64 29 17 8 31 18 29 24 -4 12 -409 355 -419 355 -4 0 -9
-61 -10 -135z"/>
</g>
</svg>
